<svg xmlns="http://www.w3.org/2000/svg" width="1200" height="1500" viewBox="0 0 1200 1500" fill="none">
  <rect width="1200" height="1500" fill="#1A1412"/>
  <rect width="1200" height="1500" fill="url(#bg)"/>
  <ellipse cx="280" cy="320" rx="260" ry="240" fill="url(#glow)" opacity=".52"/>
  <ellipse cx="870" cy="1180" rx="300" ry="250" fill="url(#glow2)" opacity=".36"/>
  <path d="M824 160C721 264 697 460 760 603C817 733 905 804 930 924C956 1052 892 1193 754 1328" stroke="url(#strand)" stroke-width="156" stroke-linecap="round"/>
  <path d="M742 208C656 310 645 456 696 564C744 664 816 749 836 856C858 970 816 1095 705 1227" stroke="rgba(255,245,232,.54)" stroke-width="54" stroke-linecap="round"/>
  <text x="96" y="1252" fill="#F8EEE6" font-size="74" font-family="Georgia, serif">Hero Motion Poster</text>
  <text x="96" y="1326" fill="#D7C5B7" font-size="32" font-family="Arial, sans-serif">Шелковая прядь, мягкий блик, спокойный премиальный тон.</text>
  <defs>
    <linearGradient id="bg" x1="124" y1="88" x2="962" y2="1386" gradientUnits="userSpaceOnUse">
      <stop stop-color="#2A1E18"/>
      <stop offset=".46" stop-color="#1A1412"/>
      <stop offset="1" stop-color="#33251F"/>
    </linearGradient>
    <radialGradient id="glow" cx="0" cy="0" r="1" gradientUnits="userSpaceOnUse" gradientTransform="translate(280 320) rotate(90) scale(240 260)">
      <stop stop-color="#EBCFB3"/>
      <stop offset="1" stop-color="#EBCFB3" stop-opacity="0"/>
    </radialGradient>
    <radialGradient id="glow2" cx="0" cy="0" r="1" gradientUnits="userSpaceOnUse" gradientTransform="translate(870 1180) rotate(90) scale(250 300)">
      <stop stop-color="#B87758"/>
      <stop offset="1" stop-color="#B87758" stop-opacity="0"/>
    </radialGradient>
    <linearGradient id="strand" x1="765" y1="160" x2="817" y2="1328" gradientUnits="userSpaceOnUse">
      <stop stop-color="#F3E0CD"/>
      <stop offset=".28" stop-color="#D9B191"/>
      <stop offset=".58" stop-color="#9A5F3F"/>
      <stop offset="1" stop-color="#EAD5BE"/>
    </linearGradient>
  </defs>
</svg>

